<mxfile host="app.diagrams.net" agent="Mozilla/5.0 (X11; Linux x86_64) AppleWebKit/537.36 (KHTML, like Gecko) Chrome/139.0.0.0 Safari/537.36" version="28.1.0">
  <diagram name="Página-1" id="GaZMPjMJZV9zarcrC8ag">
    <mxGraphModel dx="1783" dy="900" grid="1" gridSize="10" guides="1" tooltips="1" connect="1" arrows="1" fold="1" page="1" pageScale="1" pageWidth="827" pageHeight="1169" math="0" shadow="0">
      <root>
        <mxCell id="0" />
        <mxCell id="1" parent="0" />
        <mxCell id="KrklmWP81My4cQOzJbWr-1" value="Armazenamento de Dados" style="whiteSpace=wrap;strokeWidth=2;verticalAlign=top;" vertex="1" parent="1">
          <mxGeometry x="20" y="1011" width="532" height="152" as="geometry" />
        </mxCell>
        <mxCell id="KrklmWP81My4cQOzJbWr-2" value="Aplicação" style="whiteSpace=wrap;strokeWidth=2;verticalAlign=top;" vertex="1" parent="1">
          <mxGeometry x="80" y="614" width="424" height="326" as="geometry" />
        </mxCell>
        <mxCell id="KrklmWP81My4cQOzJbWr-3" value="Infraestrutura Web" style="whiteSpace=wrap;strokeWidth=2;verticalAlign=top;" vertex="1" parent="1">
          <mxGeometry x="590" y="709" width="413" height="374" as="geometry" />
        </mxCell>
        <mxCell id="KrklmWP81My4cQOzJbWr-4" value="Internet &amp; Borda de Rede" style="whiteSpace=wrap;strokeWidth=2;verticalAlign=top;" vertex="1" parent="1">
          <mxGeometry x="670" y="350" width="253" height="301" as="geometry" />
        </mxCell>
        <mxCell id="KrklmWP81My4cQOzJbWr-5" value="💻&#xa;User Browser" style="whiteSpace=wrap;strokeWidth=2;" vertex="1" parent="1">
          <mxGeometry x="714" y="375" width="164" height="78" as="geometry" />
        </mxCell>
        <mxCell id="KrklmWP81My4cQOzJbWr-6" value="☁️&#xa;Rede Cloudflare&#xa;(Túnel Seguro)" style="whiteSpace=wrap;strokeWidth=2;" vertex="1" parent="1">
          <mxGeometry x="705" y="524" width="183" height="102" as="geometry" />
        </mxCell>
        <mxCell id="KrklmWP81My4cQOzJbWr-25" value="&lt;span style=&quot;color: rgb(0, 0, 0); font-family: Helvetica; font-size: 11px; font-style: normal; font-variant-ligatures: normal; font-variant-caps: normal; font-weight: 400; letter-spacing: normal; orphans: 2; text-align: center; text-indent: 0px; text-transform: none; widows: 2; word-spacing: 0px; -webkit-text-stroke-width: 0px; white-space: nowrap; background-color: rgb(255, 255, 255); text-decoration-thickness: initial; text-decoration-style: initial; text-decoration-color: initial; display: inline !important; float: none;&quot;&gt;Proxy Reverso&lt;/span&gt;" style="edgeStyle=orthogonalEdgeStyle;rounded=0;orthogonalLoop=1;jettySize=auto;html=1;exitX=0;exitY=0.5;exitDx=0;exitDy=0;entryX=1;entryY=0.5;entryDx=0;entryDy=0;curved=1;" edge="1" parent="1" source="KrklmWP81My4cQOzJbWr-7" target="KrklmWP81My4cQOzJbWr-9">
          <mxGeometry x="-0.2035" y="-20" relative="1" as="geometry">
            <Array as="points">
              <mxPoint x="530" y="813" />
              <mxPoint x="530" y="690" />
            </Array>
            <mxPoint as="offset" />
          </mxGeometry>
        </mxCell>
        <mxCell id="KrklmWP81My4cQOzJbWr-7" value="🌐&#xa;Nginx&#xa;(Servidor Web / Proxy Reverso)" style="whiteSpace=wrap;strokeWidth=2;" vertex="1" parent="1">
          <mxGeometry x="666.5" y="750" width="260" height="126" as="geometry" />
        </mxCell>
        <mxCell id="KrklmWP81My4cQOzJbWr-8" value="📄&#xa;Static Files&#xa;(CSS, JS, Imagens)" style="whiteSpace=wrap;strokeWidth=2;" vertex="1" parent="1">
          <mxGeometry x="693.5" y="956" width="206" height="102" as="geometry" />
        </mxCell>
        <mxCell id="KrklmWP81My4cQOzJbWr-9" value="🦄&#xa;Gunicorn&#xa;(Servidor WSGI)" style="whiteSpace=wrap;strokeWidth=2;" vertex="1" parent="1">
          <mxGeometry x="206" y="639" width="183" height="102" as="geometry" />
        </mxCell>
        <mxCell id="KrklmWP81My4cQOzJbWr-10" value="🐍&#xa;Django Application" style="whiteSpace=wrap;strokeWidth=2;" vertex="1" parent="1">
          <mxGeometry x="194" y="837" width="205" height="78" as="geometry" />
        </mxCell>
        <mxCell id="KrklmWP81My4cQOzJbWr-11" value="🐘&#xa;PostgreSQL Database" style="whiteSpace=wrap;strokeWidth=2;" vertex="1" parent="1">
          <mxGeometry x="55" y="1048" width="228" height="78" as="geometry" />
        </mxCell>
        <mxCell id="KrklmWP81My4cQOzJbWr-12" value="📦&#xa;MinIO&#xa;(Object Storage)" style="whiteSpace=wrap;strokeWidth=2;" vertex="1" parent="1">
          <mxGeometry x="333" y="1036" width="184" height="102" as="geometry" />
        </mxCell>
        <mxCell id="KrklmWP81My4cQOzJbWr-13" value="Requisição HTTP/HTTPS" style="curved=1;startArrow=none;endArrow=block;exitX=0.5;exitY=1;entryX=0.5;entryY=0;rounded=0;" edge="1" parent="1" source="KrklmWP81My4cQOzJbWr-5" target="KrklmWP81My4cQOzJbWr-6">
          <mxGeometry relative="1" as="geometry">
            <Array as="points" />
          </mxGeometry>
        </mxCell>
        <mxCell id="KrklmWP81My4cQOzJbWr-14" value="Cloudflare Tunnel" style="curved=1;startArrow=none;endArrow=block;exitX=0.5;exitY=1;entryX=0.5;entryY=0;rounded=0;verticalAlign=middle;" edge="1" parent="1" source="KrklmWP81My4cQOzJbWr-6" target="KrklmWP81My4cQOzJbWr-7">
          <mxGeometry x="-0.2274" relative="1" as="geometry">
            <Array as="points" />
            <mxPoint as="offset" />
          </mxGeometry>
        </mxCell>
        <mxCell id="KrklmWP81My4cQOzJbWr-15" value="Serve diretamente" style="curved=0;startArrow=none;endArrow=block;exitX=0.5;exitY=1;entryX=0.5;entryY=0;rounded=0;exitDx=0;exitDy=0;" edge="1" parent="1" source="KrklmWP81My4cQOzJbWr-7" target="KrklmWP81My4cQOzJbWr-8">
          <mxGeometry relative="1" as="geometry">
            <Array as="points" />
          </mxGeometry>
        </mxCell>
        <mxCell id="KrklmWP81My4cQOzJbWr-17" value="Protocolo WSGI" style="curved=1;startArrow=none;endArrow=block;exitX=0.5;exitY=1;entryX=0.5;entryY=0;rounded=0;verticalAlign=middle;" edge="1" parent="1" source="KrklmWP81My4cQOzJbWr-9" target="KrklmWP81My4cQOzJbWr-10">
          <mxGeometry relative="1" as="geometry">
            <Array as="points" />
          </mxGeometry>
        </mxCell>
        <mxCell id="KrklmWP81My4cQOzJbWr-18" value="Consultas SQL" style="curved=1;startArrow=none;endArrow=block;exitX=0.12;exitY=1;entryX=0.5;entryY=0;rounded=0;startFill=0;" edge="1" parent="1" source="KrklmWP81My4cQOzJbWr-10" target="KrklmWP81My4cQOzJbWr-11">
          <mxGeometry x="0.1684" y="1" relative="1" as="geometry">
            <Array as="points">
              <mxPoint x="169" y="940" />
            </Array>
            <mxPoint as="offset" />
          </mxGeometry>
        </mxCell>
        <mxCell id="KrklmWP81My4cQOzJbWr-19" value="Leitura/Escrita de Mídia" style="curved=1;startArrow=none;endArrow=block;exitX=0.88;exitY=1;entryX=0.5;entryY=0;rounded=0;startFill=0;" edge="1" parent="1" source="KrklmWP81My4cQOzJbWr-10" target="KrklmWP81My4cQOzJbWr-12">
          <mxGeometry x="0.2653" y="-5" relative="1" as="geometry">
            <Array as="points">
              <mxPoint x="425" y="940" />
            </Array>
            <mxPoint as="offset" />
          </mxGeometry>
        </mxCell>
      </root>
    </mxGraphModel>
  </diagram>
</mxfile>
